<?xml version="1.0" encoding="UTF-8" standalone="no"?>
<!DOCTYPE svg PUBLIC "-//W3C//DTD SVG 1.1//EN" "http://www.w3.org/Graphics/SVG/1.1/DTD/svg11.dtd">
<svg width="100%" height="100%" viewBox="0 0 3000 600" version="1.1" xmlns="http://www.w3.org/2000/svg" xmlns:xlink="http://www.w3.org/1999/xlink" xml:space="preserve" xmlns:serif="http://www.serif.com/" style="fill-rule:evenodd;clip-rule:evenodd;stroke-linecap:round;stroke-miterlimit:1.5;">
    <g transform="matrix(1.47738,0,0,1.47738,-362.071,-2258.22)">
        <g transform="matrix(1,0,0,1,37.4745,1058.54)">
            <rect x="1073.26" y="533.621" width="232.499" height="279.761" style="fill:none;stroke:black;stroke-width:22.96px;"/>
        </g>
        <g transform="matrix(1,0,0,1,98,0)">
            <path d="M1936.95,1692.52L1902.07,1697.03C1902.07,1697.03 1891.61,1674.18 1864.7,1671.56C1793.6,1664.64 1755.69,1775.88 1831.73,1787.31C1871.9,1793.34 1896.63,1752.35 1896.63,1752.35L1933.57,1756.04C1933.57,1756.04 1907.47,1824.54 1829.89,1820.86C1769.06,1817.97 1743.91,1754.42 1760.92,1708.98C1775.26,1670.7 1812.91,1632.39 1870.5,1638.22C1920.61,1643.29 1936.95,1692.52 1936.95,1692.52Z"/>
        </g>
        <path d="M304.224,1640.26C304.224,1640.26 278.472,1817.2 278.777,1817.56C279.083,1817.92 313.4,1817.74 313.813,1817.83C314.227,1817.92 327.597,1712.84 327.597,1712.84C332.52,1683.01 365.787,1662.47 396.672,1680.5L412.987,1650.8C387.819,1636.91 360.836,1635.79 334.079,1649.9L335.382,1640.09L304.224,1640.26Z"/>
        <path d="M603.862,1736.9L454.379,1737.06C454.585,1795.4 524.295,1801.76 556.631,1759.46L594.378,1763.75C584.868,1784.12 546.171,1826.04 495.113,1820.47C426.642,1813 404.058,1743.89 432.821,1692.7C454.308,1654.46 492.92,1633.5 534.05,1637.43C585.769,1642.37 614.828,1693.28 603.862,1736.9ZM529.798,1671.09C489.579,1667 466.064,1703.04 466.064,1703.04L569.793,1703.03C569.793,1703.03 562.344,1674.39 529.798,1671.09Z"/>
        <g transform="matrix(0.991719,0,0,1,982.528,0.0542648)">
            <path d="M603.862,1736.9L454.379,1737.06C454.585,1795.4 524.295,1801.76 556.631,1759.46L594.378,1763.75C584.868,1784.12 546.171,1826.04 495.113,1820.47C426.642,1813 404.058,1743.89 432.821,1692.7C454.308,1654.46 492.92,1633.5 534.05,1637.43C585.769,1642.37 614.828,1693.28 603.862,1736.9ZM529.798,1671.09C489.579,1667 466.064,1703.04 466.064,1703.04L569.793,1703.03C569.793,1703.03 562.344,1674.39 529.798,1671.09Z"/>
        </g>
        <g transform="matrix(1,0,0,1,1636.05,0.0542648)">
            <path d="M603.862,1736.9L454.379,1737.06C454.585,1795.4 524.295,1801.76 556.631,1759.46L594.378,1763.75C584.868,1784.12 546.171,1826.04 495.113,1820.47C426.642,1813 404.058,1743.89 432.821,1692.7C454.308,1654.46 492.92,1633.5 534.05,1637.43C585.769,1642.37 614.828,1693.28 603.862,1736.9ZM529.798,1671.09C489.579,1667 466.064,1703.04 466.064,1703.04L569.793,1703.03C569.793,1703.03 562.344,1674.39 529.798,1671.09Z"/>
        </g>
        <path d="M667.413,1640.46L642.407,1817.96L677.831,1817.86L690.757,1726.76C700.457,1685.02 733.708,1666.67 756.676,1671.27C797.302,1679.39 788.778,1730.84 788.778,1730.84L775.951,1818.12L811.843,1817.81L823.957,1727.45C833.183,1649.62 754.741,1612.62 697.293,1655.81L699.412,1640.55L667.413,1640.46Z"/>
        <g transform="matrix(0.991719,0,0,1,984.829,0.0302967)">
            <path d="M667.413,1640.46L642.407,1817.96L677.831,1817.86L690.757,1726.76C700.457,1685.02 733.708,1666.67 756.676,1671.27C797.302,1679.39 788.778,1730.84 788.778,1730.84L775.951,1818.12L811.843,1817.81L823.957,1727.45C833.183,1649.62 754.741,1612.62 697.293,1655.81L699.412,1640.55L667.413,1640.46Z"/>
        </g>
        <path d="M879.091,1690.57C887.235,1671.94 925.438,1629.57 982.665,1638.06C1044.4,1647.21 1054.76,1695.91 1050.66,1722.98L1037.12,1818.36L1004.1,1818.29L1007.55,1800.62C984.252,1831.36 866.496,1833.91 866.489,1751.48C866.487,1721.57 893.3,1705.72 934.285,1705.91L1015.28,1706.12C1015.28,1706.12 1012.28,1676.09 974.108,1670.84C942.901,1666.55 917.7,1694.72 917.7,1694.72L879.091,1690.57ZM1004.53,1740.54L926.64,1739.56C914.796,1739.56 898.24,1745.93 901.247,1758.01C903.612,1767.51 910.844,1786.6 949.167,1786.5C994.754,1786.37 1004.53,1740.54 1004.53,1740.54Z"/>
        <g transform="matrix(1,0,0,1,52.2725,3.46317)">
            <path d="M1263.74,1686.27L1227.65,1690.43C1227.65,1690.43 1216.27,1671.73 1189.31,1672.55C1165.04,1673.28 1153.48,1684.98 1154.22,1697.83C1155.21,1714.98 1244.85,1700.74 1242.93,1763.88C1242,1794.19 1203.82,1819.82 1174.96,1821.71C1106.43,1826.19 1092.52,1763.44 1092.52,1763.44L1127.72,1758.96C1127.72,1758.96 1133.81,1787.34 1173.86,1787.12C1187.58,1787.04 1209.12,1777.03 1207.38,1759.6C1205.46,1740.21 1111.1,1756.84 1112.56,1693C1113.2,1664.75 1154.37,1636.33 1193.43,1637.37C1249.06,1638.85 1263.74,1686.27 1263.74,1686.27Z"/>
        </g>
    </g>
</svg>
